<mxfile host="app.diagrams.net" agent="Mozilla/5.0 (Macintosh; Intel Mac OS X 10_15_7) AppleWebKit/605.1.15 (KHTML, like Gecko) Version/18.1.1 Safari/605.1.15" version="24.9.2">
  <diagram name="Page-1" id="kHw9414WVIwB2vllaiVg">
    <mxGraphModel dx="2164" dy="772" grid="1" gridSize="10" guides="1" tooltips="1" connect="1" arrows="1" fold="1" page="1" pageScale="1" pageWidth="850" pageHeight="1100" math="0" shadow="0">
      <root>
        <mxCell id="0" />
        <mxCell id="1" parent="0" />
        <mxCell id="l5IVs_DGDJWgKO2tLOiS-1" value="" style="ellipse;whiteSpace=wrap;html=1;aspect=fixed;fillStyle=solid;fillColor=#000000;strokeColor=none;" parent="1" vertex="1">
          <mxGeometry x="80" y="80" width="40" height="40" as="geometry" />
        </mxCell>
        <mxCell id="l5IVs_DGDJWgKO2tLOiS-2" value="" style="endArrow=none;html=1;rounded=0;" parent="1" edge="1">
          <mxGeometry width="50" height="50" relative="1" as="geometry">
            <mxPoint x="100" y="150" as="sourcePoint" />
            <mxPoint x="99.5" y="120" as="targetPoint" />
          </mxGeometry>
        </mxCell>
        <mxCell id="ruoURCrerZYPwbjkhUwL-6" value="" style="edgeStyle=orthogonalEdgeStyle;rounded=0;orthogonalLoop=1;jettySize=auto;html=1;" parent="1" source="l5IVs_DGDJWgKO2tLOiS-3" target="l5IVs_DGDJWgKO2tLOiS-1" edge="1">
          <mxGeometry relative="1" as="geometry" />
        </mxCell>
        <mxCell id="l5IVs_DGDJWgKO2tLOiS-3" value="&lt;font style=&quot;font-size: 10px;&quot;&gt;u: sistema Vem Doar!&lt;/font&gt;" style="text;html=1;align=center;verticalAlign=middle;whiteSpace=wrap;rounded=0;" parent="1" vertex="1">
          <mxGeometry x="40" y="150" width="120" height="20" as="geometry" />
        </mxCell>
        <mxCell id="l5IVs_DGDJWgKO2tLOiS-4" value="" style="endArrow=classic;html=1;rounded=0;" parent="1" edge="1">
          <mxGeometry width="50" height="50" relative="1" as="geometry">
            <mxPoint x="99.71000000000001" y="170" as="sourcePoint" />
            <mxPoint x="100" y="200" as="targetPoint" />
          </mxGeometry>
        </mxCell>
        <mxCell id="l5IVs_DGDJWgKO2tLOiS-5" value="&lt;div&gt;&lt;br&gt;&lt;/div&gt;&lt;div&gt;&lt;br&gt;&lt;/div&gt;&lt;div&gt;[identificar-se:&amp;nbsp;&lt;br&gt;&lt;/div&gt;&lt;div&gt;XOR{d+u: email, senha,&lt;/div&gt;&lt;div&gt;d+u: acesso por redes sociais}]&lt;/div&gt;&lt;div&gt;[cadastrar-se:&lt;/div&gt;&lt;div&gt;d: direcionar cadastro]&lt;/div&gt;" style="rounded=1;whiteSpace=wrap;html=1;arcSize=8;absoluteArcSize=0;" parent="1" vertex="1">
          <mxGeometry y="200" width="200" height="120" as="geometry" />
        </mxCell>
        <mxCell id="l5IVs_DGDJWgKO2tLOiS-10" value="" style="endArrow=none;html=1;rounded=0;exitX=0.5;exitY=0.333;exitDx=0;exitDy=0;exitPerimeter=0;" parent="1" edge="1">
          <mxGeometry width="50" height="50" relative="1" as="geometry">
            <mxPoint y="230.00000000000006" as="sourcePoint" />
            <mxPoint x="200" y="230" as="targetPoint" />
          </mxGeometry>
        </mxCell>
        <mxCell id="l5IVs_DGDJWgKO2tLOiS-11" value="Efetuar Login" style="text;html=1;align=center;verticalAlign=middle;whiteSpace=wrap;rounded=0;" parent="1" vertex="1">
          <mxGeometry x="55" y="200" width="90" height="30" as="geometry" />
        </mxCell>
        <mxCell id="l5IVs_DGDJWgKO2tLOiS-15" value="" style="endArrow=none;html=1;rounded=0;" parent="1" edge="1">
          <mxGeometry width="50" height="50" relative="1" as="geometry">
            <mxPoint x="100" y="350" as="sourcePoint" />
            <mxPoint x="99.5" y="320" as="targetPoint" />
          </mxGeometry>
        </mxCell>
        <mxCell id="l5IVs_DGDJWgKO2tLOiS-16" value="&lt;font style=&quot;font-size: 10px;&quot;&gt;u: efetuar login&lt;/font&gt;" style="text;html=1;align=center;verticalAlign=middle;whiteSpace=wrap;rounded=0;" parent="1" vertex="1">
          <mxGeometry x="40" y="350" width="120" height="20" as="geometry" />
        </mxCell>
        <mxCell id="l5IVs_DGDJWgKO2tLOiS-17" value="" style="endArrow=classic;html=1;rounded=0;" parent="1" edge="1">
          <mxGeometry width="50" height="50" relative="1" as="geometry">
            <mxPoint x="99.71000000000001" y="370" as="sourcePoint" />
            <mxPoint x="100" y="400" as="targetPoint" />
          </mxGeometry>
        </mxCell>
        <mxCell id="l5IVs_DGDJWgKO2tLOiS-19" value="" style="whiteSpace=wrap;html=1;aspect=fixed;fillStyle=solid;fillColor=#000000;strokeColor=none;" parent="1" vertex="1">
          <mxGeometry x="80" y="400" width="40" height="40" as="geometry" />
        </mxCell>
        <mxCell id="l5IVs_DGDJWgKO2tLOiS-20" value="" style="endArrow=classic;html=1;rounded=0;exitX=0;exitY=0.5;exitDx=0;exitDy=0;entryX=0;entryY=0.5;entryDx=0;entryDy=0;dashed=1;" parent="1" source="l5IVs_DGDJWgKO2tLOiS-19" target="l5IVs_DGDJWgKO2tLOiS-5" edge="1">
          <mxGeometry width="50" height="50" relative="1" as="geometry">
            <mxPoint x="30" y="420" as="sourcePoint" />
            <mxPoint x="-10" y="260" as="targetPoint" />
            <Array as="points">
              <mxPoint x="-40" y="420" />
              <mxPoint x="-40" y="260" />
            </Array>
          </mxGeometry>
        </mxCell>
        <mxCell id="l5IVs_DGDJWgKO2tLOiS-21" value="&lt;font style=&quot;font-size: 10px;&quot;&gt;d: login ou&amp;nbsp;&lt;/font&gt;&lt;span style=&quot;font-size: 10px;&quot;&gt;senha&lt;/span&gt;&lt;div&gt;&lt;font style=&quot;font-size: 10px;&quot;&gt;incorreta&lt;/font&gt;&lt;/div&gt;" style="text;html=1;align=center;verticalAlign=middle;whiteSpace=wrap;rounded=0;fillColor=default;" parent="1" vertex="1">
          <mxGeometry x="-80" y="344" width="80" height="32" as="geometry" />
        </mxCell>
        <mxCell id="l5IVs_DGDJWgKO2tLOiS-22" value="" style="endArrow=none;html=1;rounded=0;" parent="1" edge="1">
          <mxGeometry width="50" height="50" relative="1" as="geometry">
            <mxPoint x="100" y="470" as="sourcePoint" />
            <mxPoint x="99.5" y="440" as="targetPoint" />
          </mxGeometry>
        </mxCell>
        <mxCell id="l5IVs_DGDJWgKO2tLOiS-23" value="&lt;font style=&quot;font-size: 10px;&quot;&gt;if: email e senha conferem&lt;/font&gt;" style="text;html=1;align=center;verticalAlign=middle;whiteSpace=wrap;rounded=0;" parent="1" vertex="1">
          <mxGeometry x="40" y="470" width="120" height="20" as="geometry" />
        </mxCell>
        <mxCell id="l5IVs_DGDJWgKO2tLOiS-24" value="" style="endArrow=classic;html=1;rounded=0;" parent="1" edge="1">
          <mxGeometry width="50" height="50" relative="1" as="geometry">
            <mxPoint x="99.71000000000001" y="490" as="sourcePoint" />
            <mxPoint x="100" y="520" as="targetPoint" />
          </mxGeometry>
        </mxCell>
        <mxCell id="l5IVs_DGDJWgKO2tLOiS-25" value="&lt;div&gt;&lt;br&gt;&lt;/div&gt;&lt;div&gt;&lt;br&gt;&lt;/div&gt;[lembrar dados da sessão:&amp;nbsp;&lt;div&gt;d: nome, email],&lt;br&gt;&lt;/div&gt;&lt;div&gt;[exibir instituições em destaque:&lt;/div&gt;&lt;div&gt;d: lista(instituição, localização, avaliação)],&lt;/div&gt;&lt;div&gt;&lt;div&gt;&lt;b&gt;why:&lt;/b&gt;&amp;nbsp;algumas instituições não&lt;/div&gt;&lt;div&gt;têm algum reconhecimento,&lt;/div&gt;&lt;/div&gt;&lt;div&gt;[exibir últimas doações do usuário:&lt;/div&gt;&lt;div&gt;d: lista(instituição, peças, data,&amp;nbsp;&lt;/div&gt;&lt;div&gt;hora, status, localizacão)],&lt;/div&gt;&lt;div&gt;[buscar por localização:&lt;/div&gt;&lt;div&gt;d+u: bairro, cidade, estado]&lt;/div&gt;" style="rounded=1;whiteSpace=wrap;html=1;arcSize=8;absoluteArcSize=0;" parent="1" vertex="1">
          <mxGeometry y="520" width="200" height="230" as="geometry" />
        </mxCell>
        <mxCell id="l5IVs_DGDJWgKO2tLOiS-26" value="" style="endArrow=none;html=1;rounded=0;exitX=0.5;exitY=0.333;exitDx=0;exitDy=0;exitPerimeter=0;" parent="1" edge="1">
          <mxGeometry width="50" height="50" relative="1" as="geometry">
            <mxPoint y="550" as="sourcePoint" />
            <mxPoint x="200" y="550" as="targetPoint" />
          </mxGeometry>
        </mxCell>
        <mxCell id="l5IVs_DGDJWgKO2tLOiS-27" value="Buscar Instituições" style="text;html=1;align=center;verticalAlign=middle;whiteSpace=wrap;rounded=0;" parent="1" vertex="1">
          <mxGeometry y="520" width="200" height="30" as="geometry" />
        </mxCell>
        <mxCell id="l5IVs_DGDJWgKO2tLOiS-30" value="" style="endArrow=classic;html=1;rounded=0;entryX=0.5;entryY=1;entryDx=0;entryDy=0;exitX=1;exitY=0.708;exitDx=0;exitDy=0;exitPerimeter=0;" parent="1" source="l5IVs_DGDJWgKO2tLOiS-25" edge="1">
          <mxGeometry width="50" height="50" relative="1" as="geometry">
            <mxPoint x="240" y="640" as="sourcePoint" />
            <mxPoint x="460" y="435" as="targetPoint" />
            <Array as="points">
              <mxPoint x="460" y="680" />
            </Array>
          </mxGeometry>
        </mxCell>
        <mxCell id="l5IVs_DGDJWgKO2tLOiS-31" value="&lt;font size=&quot;1&quot;&gt;u: ver dados de&lt;/font&gt;&lt;div&gt;&lt;font size=&quot;1&quot;&gt;instituição&amp;nbsp;&lt;/font&gt;&lt;/div&gt;" style="text;html=1;align=center;verticalAlign=middle;whiteSpace=wrap;rounded=0;fillColor=default;" parent="1" vertex="1">
          <mxGeometry x="420" y="510" width="80" height="32" as="geometry" />
        </mxCell>
        <mxCell id="l5IVs_DGDJWgKO2tLOiS-32" value="&lt;div&gt;&lt;br&gt;&lt;/div&gt;&lt;div&gt;&lt;br&gt;&lt;/div&gt;[lembrar dados da sessão:&amp;nbsp;&lt;div&gt;d: email],&lt;br&gt;&lt;/div&gt;&lt;div&gt;[examinar detalhes da instituição:&lt;/div&gt;&lt;div&gt;d: nome, localização, avaliações,&lt;/div&gt;&lt;div&gt;telefone, e-mail, site, descrição,&lt;/div&gt;&lt;div&gt;prêmios]&lt;/div&gt;" style="rounded=1;whiteSpace=wrap;html=1;arcSize=8;absoluteArcSize=0;" parent="1" vertex="1">
          <mxGeometry x="300" y="285" width="200" height="150" as="geometry" />
        </mxCell>
        <mxCell id="l5IVs_DGDJWgKO2tLOiS-33" value="Ver dados de Instituição" style="text;html=1;align=center;verticalAlign=middle;whiteSpace=wrap;rounded=0;" parent="1" vertex="1">
          <mxGeometry x="300" y="285" width="200" height="30" as="geometry" />
        </mxCell>
        <mxCell id="l5IVs_DGDJWgKO2tLOiS-34" value="" style="endArrow=none;html=1;rounded=0;exitX=0.5;exitY=0.333;exitDx=0;exitDy=0;exitPerimeter=0;" parent="1" edge="1">
          <mxGeometry width="50" height="50" relative="1" as="geometry">
            <mxPoint x="300" y="315" as="sourcePoint" />
            <mxPoint x="500" y="315" as="targetPoint" />
          </mxGeometry>
        </mxCell>
        <mxCell id="l5IVs_DGDJWgKO2tLOiS-38" value="" style="endArrow=classic;html=1;rounded=0;exitX=0.5;exitY=0;exitDx=0;exitDy=0;entryX=0.5;entryY=1;entryDx=0;entryDy=0;" parent="1" source="l5IVs_DGDJWgKO2tLOiS-39" edge="1">
          <mxGeometry width="50" height="50" relative="1" as="geometry">
            <mxPoint x="99.88" y="780" as="sourcePoint" />
            <mxPoint x="100" y="750" as="targetPoint" />
            <Array as="points">
              <mxPoint x="100" y="760" />
            </Array>
          </mxGeometry>
        </mxCell>
        <mxCell id="l5IVs_DGDJWgKO2tLOiS-39" value="&lt;font&gt;if: login efetuado&lt;/font&gt;" style="rounded=1;whiteSpace=wrap;html=1;fillColor=#CCCCCC;strokeColor=none;fillStyle=solid;fontColor=#000000;" parent="1" vertex="1">
          <mxGeometry x="40" y="830" width="120" height="30" as="geometry" />
        </mxCell>
        <mxCell id="l5IVs_DGDJWgKO2tLOiS-40" value="" style="endArrow=classic;html=1;rounded=0;exitX=0.295;exitY=0.995;exitDx=0;exitDy=0;exitPerimeter=0;entryX=0.995;entryY=0.346;entryDx=0;entryDy=0;entryPerimeter=0;" parent="1" source="l5IVs_DGDJWgKO2tLOiS-32" target="l5IVs_DGDJWgKO2tLOiS-25" edge="1">
          <mxGeometry width="50" height="50" relative="1" as="geometry">
            <mxPoint x="330" y="480" as="sourcePoint" />
            <mxPoint x="280" y="590" as="targetPoint" />
            <Array as="points">
              <mxPoint x="360" y="600" />
            </Array>
          </mxGeometry>
        </mxCell>
        <mxCell id="l5IVs_DGDJWgKO2tLOiS-41" value="&lt;font size=&quot;1&quot;&gt;u: escolher outra instituição&lt;/font&gt;" style="text;html=1;align=center;verticalAlign=middle;whiteSpace=wrap;rounded=0;fillColor=default;" parent="1" vertex="1">
          <mxGeometry x="320" y="510" width="80" height="32" as="geometry" />
        </mxCell>
        <mxCell id="l5IVs_DGDJWgKO2tLOiS-42" value="&lt;font size=&quot;1&quot;&gt;u: buscar instituições (menu)&lt;/font&gt;" style="text;html=1;align=center;verticalAlign=middle;whiteSpace=wrap;rounded=0;fillColor=default;" parent="1" vertex="1">
          <mxGeometry x="32.5" y="790" width="135" height="20" as="geometry" />
        </mxCell>
        <mxCell id="l5IVs_DGDJWgKO2tLOiS-43" value="" style="rounded=1;whiteSpace=wrap;html=1;fillColor=#CCCCCC;strokeColor=none;fillStyle=solid;" parent="1" vertex="1">
          <mxGeometry x="300" y="85" width="65" height="30" as="geometry" />
        </mxCell>
        <mxCell id="l5IVs_DGDJWgKO2tLOiS-44" value="" style="endArrow=classic;html=1;rounded=0;exitX=1;exitY=0.5;exitDx=0;exitDy=0;" parent="1" source="l5IVs_DGDJWgKO2tLOiS-43" edge="1">
          <mxGeometry width="50" height="50" relative="1" as="geometry">
            <mxPoint x="447.5" y="115" as="sourcePoint" />
            <mxPoint x="500" y="100" as="targetPoint" />
            <Array as="points">
              <mxPoint x="420" y="100" />
            </Array>
          </mxGeometry>
        </mxCell>
        <mxCell id="l5IVs_DGDJWgKO2tLOiS-45" value="&lt;font size=&quot;1&quot;&gt;u: sair&lt;/font&gt;" style="text;html=1;align=center;verticalAlign=middle;whiteSpace=wrap;rounded=0;fillColor=default;" parent="1" vertex="1">
          <mxGeometry x="410" y="70" width="50" height="20" as="geometry" />
        </mxCell>
        <mxCell id="l5IVs_DGDJWgKO2tLOiS-46" value="" style="ellipse;whiteSpace=wrap;html=1;aspect=fixed;fillStyle=solid;fillColor=#000000;strokeColor=none;" parent="1" vertex="1">
          <mxGeometry x="505" y="85" width="30" height="30" as="geometry" />
        </mxCell>
        <mxCell id="l5IVs_DGDJWgKO2tLOiS-47" value="" style="ellipse;whiteSpace=wrap;html=1;aspect=fixed;fillColor=none;" parent="1" vertex="1">
          <mxGeometry x="500" y="80" width="40" height="40" as="geometry" />
        </mxCell>
        <mxCell id="l5IVs_DGDJWgKO2tLOiS-48" value="&lt;div&gt;&lt;br&gt;&lt;/div&gt;&lt;div&gt;&lt;br&gt;&lt;/div&gt;[lembrar dados da sessão:&amp;nbsp;&lt;div&gt;d: email],&lt;br&gt;&lt;/div&gt;&lt;div&gt;[informar roupas para doação:&lt;/div&gt;&lt;div&gt;d+u: upload em massa de fotos]&lt;/div&gt;" style="rounded=1;whiteSpace=wrap;html=1;arcSize=8;absoluteArcSize=0;" parent="1" vertex="1">
          <mxGeometry x="600" y="285" width="200" height="155" as="geometry" />
        </mxCell>
        <mxCell id="l5IVs_DGDJWgKO2tLOiS-49" value="Efetuar doação" style="text;html=1;align=center;verticalAlign=middle;whiteSpace=wrap;rounded=0;" parent="1" vertex="1">
          <mxGeometry x="600" y="285" width="200" height="30" as="geometry" />
        </mxCell>
        <mxCell id="l5IVs_DGDJWgKO2tLOiS-50" value="" style="endArrow=none;html=1;rounded=0;exitX=0.5;exitY=0.333;exitDx=0;exitDy=0;exitPerimeter=0;" parent="1" edge="1">
          <mxGeometry width="50" height="50" relative="1" as="geometry">
            <mxPoint x="600" y="315" as="sourcePoint" />
            <mxPoint x="800" y="315" as="targetPoint" />
          </mxGeometry>
        </mxCell>
        <mxCell id="l5IVs_DGDJWgKO2tLOiS-51" value="" style="endArrow=classic;html=1;rounded=0;exitX=0.5;exitY=0;exitDx=0;exitDy=0;entryX=0.5;entryY=0;entryDx=0;entryDy=0;" parent="1" source="l5IVs_DGDJWgKO2tLOiS-33" target="l5IVs_DGDJWgKO2tLOiS-49" edge="1">
          <mxGeometry width="50" height="50" relative="1" as="geometry">
            <mxPoint x="430" y="235" as="sourcePoint" />
            <mxPoint x="700" y="240" as="targetPoint" />
            <Array as="points">
              <mxPoint x="400" y="240" />
              <mxPoint x="700" y="240" />
            </Array>
          </mxGeometry>
        </mxCell>
        <mxCell id="l5IVs_DGDJWgKO2tLOiS-52" value="&lt;font size=&quot;1&quot;&gt;u: efetuar doação&lt;/font&gt;" style="text;html=1;align=center;verticalAlign=middle;whiteSpace=wrap;rounded=0;fillColor=default;" parent="1" vertex="1">
          <mxGeometry x="500" y="229" width="100" height="20" as="geometry" />
        </mxCell>
        <mxCell id="l5IVs_DGDJWgKO2tLOiS-56" value="" style="endArrow=classic;html=1;rounded=0;" parent="1" edge="1">
          <mxGeometry width="50" height="50" relative="1" as="geometry">
            <mxPoint x="699.41" y="440" as="sourcePoint" />
            <mxPoint x="700" y="530" as="targetPoint" />
          </mxGeometry>
        </mxCell>
        <mxCell id="l5IVs_DGDJWgKO2tLOiS-57" value="&lt;font size=&quot;1&quot;&gt;u: informar dados&amp;nbsp;&lt;/font&gt;&lt;div&gt;&lt;font size=&quot;1&quot;&gt;de coleta&lt;/font&gt;&lt;/div&gt;" style="text;html=1;align=center;verticalAlign=middle;whiteSpace=wrap;rounded=0;fillColor=default;" parent="1" vertex="1">
          <mxGeometry x="650" y="465" width="100" height="32" as="geometry" />
        </mxCell>
        <mxCell id="l5IVs_DGDJWgKO2tLOiS-58" value="&lt;div&gt;&lt;br&gt;&lt;/div&gt;&lt;div&gt;&lt;br&gt;&lt;/div&gt;[lembrar dados da sessão:&amp;nbsp;&lt;div&gt;d: nome],&lt;br&gt;&lt;/div&gt;&lt;div&gt;SEQ{&lt;/div&gt;&lt;div&gt;[informar endereço:&lt;/div&gt;&lt;div&gt;d+u: rua, número, complemento, bairro, cidade, estado, CEP]},&lt;/div&gt;&lt;div&gt;[informar data e hora para coleta:&lt;/div&gt;&lt;div&gt;data, horário]&lt;/div&gt;" style="rounded=1;whiteSpace=wrap;html=1;arcSize=8;absoluteArcSize=0;" parent="1" vertex="1">
          <mxGeometry x="600" y="527.5" width="200" height="155" as="geometry" />
        </mxCell>
        <mxCell id="l5IVs_DGDJWgKO2tLOiS-59" value="Informar dados de coleta" style="text;html=1;align=center;verticalAlign=middle;whiteSpace=wrap;rounded=0;" parent="1" vertex="1">
          <mxGeometry x="600" y="527.5" width="200" height="30" as="geometry" />
        </mxCell>
        <mxCell id="l5IVs_DGDJWgKO2tLOiS-60" value="" style="endArrow=none;html=1;rounded=0;exitX=0.5;exitY=0.333;exitDx=0;exitDy=0;exitPerimeter=0;" parent="1" edge="1">
          <mxGeometry width="50" height="50" relative="1" as="geometry">
            <mxPoint x="600" y="557.5" as="sourcePoint" />
            <mxPoint x="800" y="557.5" as="targetPoint" />
          </mxGeometry>
        </mxCell>
        <mxCell id="l5IVs_DGDJWgKO2tLOiS-61" value="" style="endArrow=classic;html=1;rounded=0;exitX=0.5;exitY=1;exitDx=0;exitDy=0;" parent="1" source="l5IVs_DGDJWgKO2tLOiS-58" edge="1">
          <mxGeometry width="50" height="50" relative="1" as="geometry">
            <mxPoint x="650" y="700" as="sourcePoint" />
            <mxPoint x="700" y="790" as="targetPoint" />
            <Array as="points">
              <mxPoint x="700" y="700" />
            </Array>
          </mxGeometry>
        </mxCell>
        <mxCell id="l5IVs_DGDJWgKO2tLOiS-62" value="&lt;font size=&quot;1&quot;&gt;u: confirmar doação&lt;/font&gt;" style="text;html=1;align=center;verticalAlign=middle;whiteSpace=wrap;rounded=0;fillColor=default;" parent="1" vertex="1">
          <mxGeometry x="632.5" y="720" width="135" height="20" as="geometry" />
        </mxCell>
        <mxCell id="l5IVs_DGDJWgKO2tLOiS-63" value="&lt;div&gt;&lt;br&gt;&lt;/div&gt;&lt;div&gt;&lt;br&gt;&lt;/div&gt;[lembrar dados da sessão:&amp;nbsp;&lt;div&gt;d: email],&lt;br&gt;&lt;/div&gt;&lt;div&gt;[lembrar dados da doação:&lt;/div&gt;&lt;div&gt;d: instituição selecionada,&lt;/div&gt;&lt;div&gt;d: lista de roupas,&lt;/div&gt;&lt;div&gt;d: endereço de coleta,&lt;/div&gt;&lt;div&gt;d: período de coleta]&lt;/div&gt;" style="rounded=1;whiteSpace=wrap;html=1;arcSize=8;absoluteArcSize=0;" parent="1" vertex="1">
          <mxGeometry x="400" y="887" width="200" height="155" as="geometry" />
        </mxCell>
        <mxCell id="l5IVs_DGDJWgKO2tLOiS-64" value="Confirmar doação" style="text;html=1;align=center;verticalAlign=middle;whiteSpace=wrap;rounded=0;" parent="1" vertex="1">
          <mxGeometry x="400" y="887" width="200" height="30" as="geometry" />
        </mxCell>
        <mxCell id="l5IVs_DGDJWgKO2tLOiS-65" value="" style="endArrow=none;html=1;rounded=0;exitX=0.5;exitY=0.333;exitDx=0;exitDy=0;exitPerimeter=0;" parent="1" edge="1">
          <mxGeometry width="50" height="50" relative="1" as="geometry">
            <mxPoint x="400" y="917" as="sourcePoint" />
            <mxPoint x="600" y="917" as="targetPoint" />
          </mxGeometry>
        </mxCell>
        <mxCell id="l5IVs_DGDJWgKO2tLOiS-66" value="" style="whiteSpace=wrap;html=1;aspect=fixed;fillStyle=solid;fillColor=#000000;strokeColor=none;" parent="1" vertex="1">
          <mxGeometry x="680" y="790" width="40" height="40" as="geometry" />
        </mxCell>
        <mxCell id="l5IVs_DGDJWgKO2tLOiS-67" value="" style="endArrow=classic;html=1;rounded=0;exitX=0;exitY=0.5;exitDx=0;exitDy=0;dashed=1;entryX=0;entryY=0.5;entryDx=0;entryDy=0;" parent="1" source="l5IVs_DGDJWgKO2tLOiS-66" target="l5IVs_DGDJWgKO2tLOiS-58" edge="1">
          <mxGeometry width="50" height="50" relative="1" as="geometry">
            <mxPoint x="630" y="810" as="sourcePoint" />
            <mxPoint x="590" y="610" as="targetPoint" />
            <Array as="points">
              <mxPoint x="560" y="810" />
              <mxPoint x="560" y="605" />
            </Array>
          </mxGeometry>
        </mxCell>
        <mxCell id="l5IVs_DGDJWgKO2tLOiS-68" value="&lt;font size=&quot;1&quot;&gt;d: período&lt;/font&gt;&lt;div&gt;&lt;font size=&quot;1&quot;&gt;indisponível&lt;/font&gt;&lt;/div&gt;" style="text;html=1;align=center;verticalAlign=middle;whiteSpace=wrap;rounded=0;fillColor=default;" parent="1" vertex="1">
          <mxGeometry x="520" y="714" width="80" height="32" as="geometry" />
        </mxCell>
        <mxCell id="l5IVs_DGDJWgKO2tLOiS-69" value="" style="endArrow=classic;html=1;rounded=0;exitX=0.5;exitY=1;exitDx=0;exitDy=0;" parent="1" edge="1">
          <mxGeometry width="50" height="50" relative="1" as="geometry">
            <mxPoint x="700" y="830" as="sourcePoint" />
            <mxPoint x="600" y="980" as="targetPoint" />
            <Array as="points">
              <mxPoint x="700" y="847" />
              <mxPoint x="700" y="980" />
            </Array>
          </mxGeometry>
        </mxCell>
        <mxCell id="l5IVs_DGDJWgKO2tLOiS-70" value="&lt;font size=&quot;1&quot;&gt;if: período disponível&lt;/font&gt;" style="text;html=1;align=center;verticalAlign=middle;whiteSpace=wrap;rounded=0;fillColor=default;" parent="1" vertex="1">
          <mxGeometry x="632.5" y="887" width="135" height="20" as="geometry" />
        </mxCell>
        <mxCell id="l5IVs_DGDJWgKO2tLOiS-80" value="&lt;div&gt;&lt;br&gt;&lt;/div&gt;&lt;div&gt;&lt;br&gt;&lt;/div&gt;&lt;div&gt;[cadastrar conta:&lt;/div&gt;&lt;div&gt;&lt;div&gt;d+u: email, nome, senha]&lt;br&gt;&lt;/div&gt;&lt;/div&gt;" style="rounded=1;whiteSpace=wrap;html=1;arcSize=8;absoluteArcSize=0;" parent="1" vertex="1">
          <mxGeometry x="-400" y="200" width="200" height="150" as="geometry" />
        </mxCell>
        <mxCell id="l5IVs_DGDJWgKO2tLOiS-81" value="" style="endArrow=none;html=1;rounded=0;exitX=0.5;exitY=0.333;exitDx=0;exitDy=0;exitPerimeter=0;" parent="1" edge="1">
          <mxGeometry width="50" height="50" relative="1" as="geometry">
            <mxPoint x="-400" y="230.00000000000006" as="sourcePoint" />
            <mxPoint x="-200" y="230" as="targetPoint" />
          </mxGeometry>
        </mxCell>
        <mxCell id="l5IVs_DGDJWgKO2tLOiS-82" value="Cadastrar conta" style="text;html=1;align=center;verticalAlign=middle;whiteSpace=wrap;rounded=0;" parent="1" vertex="1">
          <mxGeometry x="-400" y="200" width="200" height="30" as="geometry" />
        </mxCell>
        <mxCell id="l5IVs_DGDJWgKO2tLOiS-83" value="" style="endArrow=classic;html=1;rounded=0;entryX=1;entryY=0.5;entryDx=0;entryDy=0;exitX=0;exitY=0.5;exitDx=0;exitDy=0;" parent="1" edge="1">
          <mxGeometry width="50" height="50" relative="1" as="geometry">
            <mxPoint y="245" as="sourcePoint" />
            <mxPoint x="-200" y="245" as="targetPoint" />
            <Array as="points" />
          </mxGeometry>
        </mxCell>
        <mxCell id="l5IVs_DGDJWgKO2tLOiS-84" value="&lt;font size=&quot;1&quot;&gt;u: cadastrar conta&lt;/font&gt;" style="text;html=1;align=center;verticalAlign=middle;whiteSpace=wrap;rounded=0;fillColor=default;" parent="1" vertex="1">
          <mxGeometry x="-170" y="220" width="135" height="20" as="geometry" />
        </mxCell>
        <mxCell id="l5IVs_DGDJWgKO2tLOiS-85" value="" style="endArrow=none;html=1;rounded=0;" parent="1" edge="1">
          <mxGeometry width="50" height="50" relative="1" as="geometry">
            <mxPoint x="-299.75" y="200" as="sourcePoint" />
            <mxPoint x="-300" y="180" as="targetPoint" />
          </mxGeometry>
        </mxCell>
        <mxCell id="l5IVs_DGDJWgKO2tLOiS-86" value="&lt;font style=&quot;font-size: 10px;&quot;&gt;u: efetuar cadastro&lt;/font&gt;" style="text;html=1;align=center;verticalAlign=middle;whiteSpace=wrap;rounded=0;" parent="1" vertex="1">
          <mxGeometry x="-360" y="160" width="120" height="20" as="geometry" />
        </mxCell>
        <mxCell id="Xe5qKGFIFXrixqFc2mP5-1" value="" style="edgeStyle=orthogonalEdgeStyle;rounded=0;orthogonalLoop=1;jettySize=auto;html=1;" parent="1" edge="1">
          <mxGeometry relative="1" as="geometry">
            <mxPoint x="-300.17" y="150" as="sourcePoint" />
            <mxPoint x="-300.17" y="120" as="targetPoint" />
            <Array as="points">
              <mxPoint x="-299.92" y="160" />
              <mxPoint x="-299.92" y="160" />
            </Array>
          </mxGeometry>
        </mxCell>
        <mxCell id="l5IVs_DGDJWgKO2tLOiS-88" value="" style="whiteSpace=wrap;html=1;aspect=fixed;fillStyle=solid;fillColor=#000000;strokeColor=none;" parent="1" vertex="1">
          <mxGeometry x="-320" y="80" width="40" height="40" as="geometry" />
        </mxCell>
        <mxCell id="l5IVs_DGDJWgKO2tLOiS-89" value="" style="endArrow=classic;html=1;rounded=0;dashed=1;entryX=0;entryY=0.533;entryDx=0;entryDy=0;entryPerimeter=0;exitX=0;exitY=0.5;exitDx=0;exitDy=0;" parent="1" source="l5IVs_DGDJWgKO2tLOiS-88" target="l5IVs_DGDJWgKO2tLOiS-80" edge="1">
          <mxGeometry width="50" height="50" relative="1" as="geometry">
            <mxPoint x="-330" y="100" as="sourcePoint" />
            <mxPoint x="-540" y="130" as="targetPoint" />
            <Array as="points">
              <mxPoint x="-440" y="100" />
              <mxPoint x="-440" y="280" />
            </Array>
          </mxGeometry>
        </mxCell>
        <mxCell id="l5IVs_DGDJWgKO2tLOiS-90" value="&lt;font size=&quot;1&quot;&gt;d: dados inválidos&lt;/font&gt;" style="text;html=1;align=center;verticalAlign=middle;whiteSpace=wrap;rounded=0;fillColor=default;" parent="1" vertex="1">
          <mxGeometry x="-480" y="138" width="80" height="42" as="geometry" />
        </mxCell>
        <mxCell id="l5IVs_DGDJWgKO2tLOiS-92" value="&lt;font style=&quot;font-size: 10px;&quot;&gt;if: dados válidos&lt;/font&gt;" style="text;html=1;align=center;verticalAlign=middle;whiteSpace=wrap;rounded=0;" parent="1" vertex="1">
          <mxGeometry x="-210" y="80" width="120" height="20" as="geometry" />
        </mxCell>
        <mxCell id="l5IVs_DGDJWgKO2tLOiS-93" value="" style="endArrow=classic;html=1;rounded=0;entryX=0.106;entryY=-0.002;entryDx=0;entryDy=0;entryPerimeter=0;exitX=1;exitY=0.5;exitDx=0;exitDy=0;" parent="1" source="l5IVs_DGDJWgKO2tLOiS-88" target="l5IVs_DGDJWgKO2tLOiS-5" edge="1">
          <mxGeometry width="50" height="50" relative="1" as="geometry">
            <mxPoint x="-230" y="100" as="sourcePoint" />
            <mxPoint x="20" y="180" as="targetPoint" />
            <Array as="points">
              <mxPoint x="20" y="100" />
            </Array>
          </mxGeometry>
        </mxCell>
        <mxCell id="l2pt0H2XzTYbZArDygso-1" value="" style="endArrow=classic;html=1;rounded=0;dashed=1;exitX=1;exitY=0.5;exitDx=0;exitDy=0;entryX=1;entryY=0.5;entryDx=0;entryDy=0;" parent="1" source="l5IVs_DGDJWgKO2tLOiS-66" target="l5IVs_DGDJWgKO2tLOiS-58" edge="1">
          <mxGeometry width="50" height="50" relative="1" as="geometry">
            <mxPoint x="950" y="810" as="sourcePoint" />
            <mxPoint x="870" y="606" as="targetPoint" />
            <Array as="points">
              <mxPoint x="840" y="811" />
              <mxPoint x="840" y="606" />
            </Array>
          </mxGeometry>
        </mxCell>
        <mxCell id="l2pt0H2XzTYbZArDygso-2" value="&lt;font size=&quot;1&quot;&gt;d: dados&lt;/font&gt;&lt;div&gt;&lt;font size=&quot;1&quot;&gt;inválidos&lt;/font&gt;&lt;/div&gt;" style="text;html=1;align=center;verticalAlign=middle;whiteSpace=wrap;rounded=0;fillColor=default;" parent="1" vertex="1">
          <mxGeometry x="800" y="715" width="80" height="32" as="geometry" />
        </mxCell>
        <mxCell id="ruoURCrerZYPwbjkhUwL-1" value="&lt;div&gt;&lt;br&gt;&lt;/div&gt;&lt;div&gt;&lt;br&gt;&lt;/div&gt;[lembrar dados da sessão:&amp;nbsp;&lt;div&gt;d: email],&lt;br&gt;&lt;/div&gt;&lt;div&gt;[lembrar dados da doação:&lt;/div&gt;&lt;div&gt;d: instituição selecionada,&lt;/div&gt;&lt;div&gt;d: status da doação,&lt;/div&gt;&lt;div&gt;d: lista de roupas,&lt;/div&gt;&lt;div&gt;d: endereço de coleta,&lt;/div&gt;&lt;div&gt;d: período de coleta]&lt;/div&gt;" style="rounded=1;whiteSpace=wrap;html=1;arcSize=8;absoluteArcSize=0;" parent="1" vertex="1">
          <mxGeometry x="-330" y="880" width="200" height="155" as="geometry" />
        </mxCell>
        <mxCell id="ruoURCrerZYPwbjkhUwL-2" value="Acompanhar doação" style="text;html=1;align=center;verticalAlign=middle;whiteSpace=wrap;rounded=0;" parent="1" vertex="1">
          <mxGeometry x="-330" y="880" width="200" height="30" as="geometry" />
        </mxCell>
        <mxCell id="ruoURCrerZYPwbjkhUwL-3" value="" style="endArrow=none;html=1;rounded=0;exitX=0.5;exitY=0.333;exitDx=0;exitDy=0;exitPerimeter=0;" parent="1" edge="1">
          <mxGeometry width="50" height="50" relative="1" as="geometry">
            <mxPoint x="-330" y="910" as="sourcePoint" />
            <mxPoint x="-130" y="910" as="targetPoint" />
          </mxGeometry>
        </mxCell>
        <mxCell id="ruoURCrerZYPwbjkhUwL-4" value="" style="endArrow=classic;html=1;rounded=0;entryX=1.017;entryY=0.623;entryDx=0;entryDy=0;exitX=0;exitY=0.5;exitDx=0;exitDy=0;entryPerimeter=0;" parent="1" target="ruoURCrerZYPwbjkhUwL-1" edge="1">
          <mxGeometry width="50" height="50" relative="1" as="geometry">
            <mxPoint x="400" y="976.6" as="sourcePoint" />
            <mxPoint x="200" y="976.6" as="targetPoint" />
            <Array as="points" />
          </mxGeometry>
        </mxCell>
        <mxCell id="ruoURCrerZYPwbjkhUwL-5" value="&lt;font size=&quot;1&quot;&gt;u: confirmar doação&lt;/font&gt;" style="text;html=1;align=center;verticalAlign=middle;whiteSpace=wrap;rounded=0;fillColor=default;" parent="1" vertex="1">
          <mxGeometry x="32.5" y="954.5" width="135" height="20" as="geometry" />
        </mxCell>
      </root>
    </mxGraphModel>
  </diagram>
</mxfile>
